<svg width="21" height="21" viewBox="0 0 21 21" fill="none" xmlns="http://www.w3.org/2000/svg">
<path d="M8.94299 0L7.66906 3.03195C7.41427 3.10839 7.18497 3.23578 6.95566 3.36318L3.9237 2.08925L2.08925 3.9237L3.36318 6.95566C3.23578 7.21044 3.13387 7.41427 3.03195 7.66906L0 8.94299V11.4909L3.03195 12.7648C3.13387 13.0196 3.23578 13.2234 3.36318 13.4782L2.08925 16.5101L3.9237 18.3446L6.95566 17.0707C7.18497 17.1726 7.41427 17.3 7.66906 17.4019L8.94299 20.4338H11.4909L12.7648 17.4019C12.9941 17.3 13.2489 17.1981 13.4782 17.0707L16.5101 18.3446L18.3446 16.5101L17.0707 13.4782C17.1726 13.2489 17.3 12.9941 17.4019 12.7648L20.4338 11.4909V8.94299L17.4019 7.66906C17.3255 7.43975 17.1981 7.18497 17.0707 6.95566L18.3446 3.9237L16.5101 2.08925L13.4782 3.36318C13.2489 3.26126 12.9941 3.13387 12.7648 3.03195L11.4909 0L8.94299 0ZM10.2169 6.36965C12.3316 6.36965 14.0387 8.07672 14.0387 10.1914C14.0387 12.3062 12.3316 14.0132 10.2169 14.0132C8.1022 14.0132 6.39513 12.3062 6.39513 10.1914C6.39513 8.07672 8.1022 6.36965 10.2169 6.36965Z" fill="white"/>
</svg>
