<svg width="28" height="22" viewBox="0 0 28 22" fill="none" xmlns="http://www.w3.org/2000/svg">
<path d="M1.46236 0.7558C1.00753 0.828572 0.600243 1.07904 0.330089 1.45211C0.059935 1.82518 -0.0509527 2.29029 0.0218197 2.74512C0.0945921 3.19995 0.345063 3.60724 0.718133 3.87739C1.0912 4.14754 1.55631 4.25843 2.01114 4.18566H7.15593L7.46461 5.04312L8.87086 9.33045L10.2771 13.6178C10.4143 14.0637 10.9974 14.4752 11.4432 14.4752H23.4478C23.9279 14.4752 24.4767 14.0637 24.6139 13.6178L27.3921 5.04312C27.5293 4.59724 27.3235 4.18566 26.8433 4.18566H11.6147L10.3114 1.71616C10.1726 1.43271 9.95823 1.19307 9.69196 1.02363C9.42569 0.854184 9.11782 0.761506 8.80226 0.7558L1.94254 0.7558C1.83985 0.74652 1.73654 0.74652 1.63385 0.7558C1.56532 0.75168 1.4966 0.75168 1.42806 0.7558L1.46236 0.7558ZM12.3007 17.9051C11.3404 17.9051 10.5858 18.6597 10.5858 19.62C10.5858 20.5804 11.3404 21.335 12.3007 21.335C13.2611 21.335 14.0156 20.5804 14.0156 19.62C14.0156 18.6597 13.2611 17.9051 12.3007 17.9051ZM22.5903 17.9051C21.6299 17.9051 20.8754 18.6597 20.8754 19.62C20.8754 20.5804 21.6299 21.335 22.5903 21.335C23.5507 21.335 24.3052 20.5804 24.3052 19.62C24.3052 18.6597 23.5507 17.9051 22.5903 17.9051Z" fill="white"/>
</svg>
