<svg width="34" height="34" viewBox="0 0 34 34" fill="none" xmlns="http://www.w3.org/2000/svg">
<path d="M14.7353 0.0421009C6.60984 0.0421009 0 6.65194 0 14.7774C0 22.9029 6.60984 29.5127 14.7353 29.5127C17.2193 29.5127 19.6611 28.9233 21.7241 27.7866C21.8893 27.9855 22.0725 28.1687 22.2714 28.3339L26.4815 32.544C26.8702 32.9814 27.3443 33.3348 27.8745 33.5824C28.4048 33.83 28.98 33.9666 29.565 33.9838C30.15 34.001 30.7323 33.8985 31.2762 33.6825C31.8201 33.4665 32.3141 33.1417 32.7279 32.7279C33.1417 32.3141 33.4665 31.8201 33.6825 31.2762C33.8985 30.7323 34.001 30.15 33.9838 29.565C33.9666 28.98 33.83 28.4048 33.5824 27.8745C33.3348 27.3443 32.9814 26.8702 32.544 26.4815L28.3339 22.2714C28.1288 22.0662 27.9031 21.8828 27.6603 21.7241C28.797 19.6611 29.5127 17.2614 29.5127 14.7353C29.5127 6.60984 22.9029 0 14.7774 0L14.7353 0.0421009ZM14.7353 4.25219C20.5873 4.25219 25.2605 8.92539 25.2605 14.7774C25.2605 17.5561 24.2501 20.1242 22.4819 22.0188C22.4398 22.0609 22.3977 22.103 22.3556 22.1451C22.1567 22.3103 21.9735 22.4935 21.8083 22.6924C19.9558 24.3764 17.4298 25.3447 14.6932 25.3447C8.84119 25.3447 4.16799 20.6715 4.16799 14.8195C4.16799 8.96749 8.84119 4.29429 14.6932 4.29429L14.7353 4.25219Z" fill="black"/>
</svg>
