<svg width="15" height="24" viewBox="0 0 15 24" fill="none" xmlns="http://www.w3.org/2000/svg">
<path d="M0.565572 0C0.238136 0 0 0.238136 0 0.565572V23.2778C0 23.6052 0.238136 23.8433 0.565572 23.8433H14.3477C14.6751 23.8433 14.9132 23.6052 14.9132 23.2778V0.565572C14.9132 0.238136 14.6751 0 14.3477 0L0.565572 0ZM2.97669 2.97669H11.9068V17.8602H2.97669V2.97669ZM7.44174 19.3485C8.27521 19.3485 8.93008 20.0034 8.93008 20.8369C8.93008 21.6703 8.27521 22.3252 7.44174 22.3252C6.60826 22.3252 5.95339 21.6703 5.95339 20.8369C5.95339 20.0034 6.60826 19.3485 7.44174 19.3485Z" fill="white"/>
</svg>
