<svg width="22" height="22" viewBox="0 0 22 22" fill="none" xmlns="http://www.w3.org/2000/svg">
<path d="M21.4338 0C8.03769 0 5.35846 2.67923 5.35846 2.67923V13.6373C4.95658 13.5033 4.47431 13.3962 4.01885 13.3962C1.79508 13.3962 0 15.1912 0 17.415C0 19.6388 1.79508 21.4338 4.01885 21.4338C6.24261 21.4338 8.03769 19.6388 8.03769 17.415V6.77845C9.99353 6.16223 13.3694 5.59959 18.7546 5.43884V10.9581C18.3527 10.8241 17.8705 10.7169 17.415 10.7169C15.1912 10.7169 13.3962 12.512 13.3962 14.7358C13.3962 16.9595 15.1912 18.7546 17.415 18.7546C19.6388 18.7546 21.4338 16.9595 21.4338 14.7358V0Z" fill="white"/>
</svg>
